<svg width="24" height="25" viewBox="0 0 24 25" fill="none" xmlns="http://www.w3.org/2000/svg">
<g clip-path="url(#clip0_18_666)">
<path d="M24 12.5735C24 5.90447 18.627 0.498474 12 0.498474C5.37 0.499974 -0.00299835 5.90448 -0.00299835 12.575C-0.00299835 18.6005 4.386 23.5955 10.122 24.5015V16.064H7.077V12.575H10.125V9.91247C10.125 6.88697 11.9175 5.21597 14.658 5.21597C15.972 5.21597 17.3445 5.45147 17.3445 5.45147V8.42147H15.831C14.3415 8.42147 13.8765 9.35297 13.8765 10.3085V12.5735H17.2035L16.6725 16.0625H13.875V24.5C19.611 23.594 24 18.599 24 12.5735Z" fill="#059BE5"/>
</g>
<defs>
<clipPath id="clip0_18_666">
<rect y="0.5" width="24" height="24" rx="12" fill="white"/>
</clipPath>
</defs>
</svg>
