<svg width="50" height="51" viewBox="0 0 50 51" fill="none" xmlns="http://www.w3.org/2000/svg">
<g id="Clear">
<path id="Vector" d="M19.1042 8.83339C19.5346 7.61353 20.3328 6.55721 21.3887 5.81004C22.4447 5.06286 23.7064 4.66162 25 4.66162C26.2936 4.66162 27.5553 5.06286 28.6112 5.81004C29.6672 6.55721 30.4654 7.61353 30.8958 8.83339M42.7083 13.0001H7.29166M38.2792 32.5834C37.9104 38.1126 37.725 40.8771 35.9229 42.5626C34.1208 44.2501 31.35 44.2501 25.8062 44.2501H24.1937C18.6521 44.2501 15.8812 44.2501 14.0771 42.5626C12.275 40.8771 12.0917 38.1126 11.7229 32.5834L10.7646 18.2084M39.2354 18.2084L38.8187 24.4584M19.7917 23.4167L20.8333 33.8334M30.2083 23.4167L29.1667 33.8334" stroke="#FF7D1F" stroke-width="3.125" stroke-linecap="round"/>
</g>
</svg>
