<svg width="50" height="50" viewBox="0 0 50 50" fill="none" xmlns="http://www.w3.org/2000/svg">
<g id="typcn:delete-outline">
<path id="Vector" d="M25 6.25C14.6604 6.25 6.25 14.6625 6.25 25C6.25 35.3375 14.6604 43.75 25 43.75C35.3396 43.75 43.75 35.3375 43.75 25C43.75 14.6625 35.3396 6.25 25 6.25ZM25 39.5833C16.9604 39.5833 10.4167 33.0417 10.4167 25C10.4167 16.9583 16.9604 10.4167 25 10.4167C33.0396 10.4167 39.5833 16.9583 39.5833 25C39.5833 33.0417 33.0396 39.5833 25 39.5833ZM26.4729 25L31.9854 19.4875C32.1797 19.2916 32.2887 19.0269 32.2887 18.751C32.2887 18.4752 32.1797 18.2105 31.9854 18.0146C31.7895 17.8203 31.5248 17.7113 31.249 17.7113C30.9731 17.7113 30.7084 17.8203 30.5125 18.0146L25 23.5271L19.4875 18.0125C19.291 17.8228 19.0279 17.7178 18.7548 17.7201C18.4817 17.7225 18.2204 17.8321 18.0273 18.0252C17.8341 18.2183 17.7246 18.4796 17.7222 18.7527C17.7198 19.0258 17.8248 19.289 18.0146 19.4854L23.5271 25L18.0146 30.5125C17.819 30.7078 17.709 30.9728 17.7088 31.2493C17.7086 31.5257 17.8182 31.7909 18.0135 31.9865C18.2089 32.1821 18.4739 32.2921 18.7503 32.2922C19.0267 32.2924 19.2919 32.1828 19.4875 31.9875L25 26.4729L30.5125 31.9854C30.6084 32.085 30.7233 32.1645 30.8503 32.2193C30.9773 32.2741 31.1139 32.303 31.2522 32.3044C31.3905 32.3058 31.5277 32.2796 31.6558 32.2274C31.7839 32.1752 31.9003 32.098 31.9983 32.0004C32.0962 31.9027 32.1737 31.7865 32.2263 31.6586C32.2788 31.5307 32.3054 31.3935 32.3044 31.2552C32.3034 31.1169 32.2748 30.9802 32.2204 30.853C32.166 30.7259 32.0868 30.6108 31.9875 30.5146L26.4729 25Z" fill="#FF7D1F"/>
</g>
</svg>
