<svg width="24" height="25" viewBox="0 0 24 25" fill="none" xmlns="http://www.w3.org/2000/svg">
<g id="flat-color-icons:google">
<g clip-path="url(#clip0_1_3685)">
<g id="Group 2212">
<path id="Vector" d="M23.7662 10.1496H22.7996V10.0998H11.9998V14.8998H18.7815C17.7921 17.6939 15.1335 19.6997 11.9998 19.6997C8.02366 19.6997 4.79992 16.4759 4.79992 12.4998C4.79992 8.52366 8.02366 5.29992 11.9998 5.29992C13.8352 5.29992 15.5049 5.9923 16.7763 7.12329L20.1705 3.72914C18.0273 1.73178 15.1605 0.5 11.9998 0.5C5.37291 0.5 0 5.87291 0 12.4998C0 19.1267 5.37291 24.4996 11.9998 24.4996C18.6267 24.4996 23.9996 19.1267 23.9996 12.4998C23.9996 11.6952 23.9168 10.9098 23.7662 10.1496Z" fill="#FFC107"/>
<path id="Vector_2" d="M1.38281 6.91449L5.32534 9.80584C6.39213 7.16468 8.97568 5.29992 11.999 5.29992C13.8344 5.29992 15.5042 5.9923 16.7755 7.12328L20.1697 3.72914C18.0265 1.73178 15.1598 0.5 11.999 0.5C7.38991 0.5 3.39278 3.10215 1.38281 6.91449Z" fill="#FF3D00"/>
<path id="Vector_3" d="M12.0002 24.5001C15.0997 24.5001 17.9161 23.3139 20.0455 21.3849L16.3315 18.2422C15.0863 19.1892 13.5646 19.7014 12.0002 19.7001C8.87905 19.7001 6.2289 17.71 5.23051 14.9326L1.31738 17.9476C3.30335 21.8337 7.33648 24.5001 12.0002 24.5001Z" fill="#4CAF50"/>
<path id="Vector_4" d="M23.7664 10.1494H22.7998V10.0996H12V14.8995H18.7817C18.3084 16.2294 17.4559 17.3914 16.3295 18.2421L16.3313 18.2409L20.0453 21.3836C19.7825 21.6224 23.9998 18.4995 23.9998 12.4996C23.9998 11.695 23.917 10.9096 23.7664 10.1494Z" fill="#1976D2"/>
</g>
</g>
</g>
<defs>
<clipPath id="clip0_1_3685">
<rect y="0.5" width="24" height="24" rx="12" fill="white"/>
</clipPath>
</defs>
</svg>
