<svg width="25" height="25" viewBox="0 0 25 25" fill="none" xmlns="http://www.w3.org/2000/svg">
<g clip-path="url(#clip0_18_661)">
<path fill-rule="evenodd" clip-rule="evenodd" d="M12.5 0.5C5.87 0.5 0.5 5.87 0.5 12.5C0.5 17.81 3.935 22.295 8.705 23.885C9.305 23.99 9.53 23.63 9.53 23.315C9.53 23.03 9.515 22.085 9.515 21.08C6.5 21.635 5.72 20.345 5.48 19.67C5.345 19.325 4.76 18.26 4.25 17.975C3.83 17.75 3.23 17.195 4.235 17.18C5.18 17.165 5.855 18.05 6.08 18.41C7.16 20.225 8.885 19.715 9.575 19.4C9.68 18.62 9.995 18.095 10.34 17.795C7.67 17.495 4.88 16.46 4.88 11.87C4.88 10.565 5.345 9.485 6.11 8.645C5.99 8.345 5.57 7.115 6.23 5.465C6.23 5.465 7.235 5.15 9.53 6.695C10.49 6.425 11.51 6.29 12.53 6.29C13.55 6.29 14.57 6.425 15.53 6.695C17.825 5.135 18.83 5.465 18.83 5.465C19.49 7.115 19.07 8.345 18.95 8.645C19.715 9.485 20.18 10.55 20.18 11.87C20.18 16.475 17.375 17.495 14.705 17.795C15.14 18.17 15.515 18.89 15.515 20.015C15.515 21.62 15.5 22.91 15.5 23.315C15.5 23.63 15.725 24.005 16.325 23.885C18.7072 23.0807 20.7772 21.5497 22.2437 19.5074C23.7101 17.465 24.4993 15.0143 24.5 12.5C24.5 5.87 19.13 0.5 12.5 0.5Z" fill="black"/>
</g>
<defs>
<clipPath id="clip0_18_661">
<rect x="0.5" y="0.5" width="24" height="24" rx="12" fill="white"/>
</clipPath>
</defs>
</svg>
