<svg width="128" height="128" viewBox="0 0 128 128" fill="none" xmlns="http://www.w3.org/2000/svg">
<g id="paypal" clip-path="url(#clip0_650_2164)">
<path id="Vector" d="M108.8 0H19.2C8.59613 0 0 8.59613 0 19.2V108.8C0 119.404 8.59613 128 19.2 128H108.8C119.404 128 128 119.404 128 108.8V19.2C128 8.59613 119.404 0 108.8 0Z" fill="white"/>
<path id="Vector_2" d="M94.25 46.2L45.175 99.75H27.175C25.925 99.75 24.925 98.5 25.175 97.25L37.175 21.25C37.425 19.5 38.925 18.25 40.675 18.25H71.175C92.175 19 97.925 29.75 94.175 46.25L94.25 46.2Z" fill="#002C8A"/>
<path id="Vector_3" d="M95.05 41.25C102.55 45.25 104.3 52.75 101.8 62.75C98.55 77.5 88.8 83.75 74.55 84L70.55 84.25C69.05 84.25 68.05 85.25 67.8 86.75L64.55 106.5C64.3 108.25 62.8 109.5 61.05 109.5H46.05C44.8 109.5 43.8 108.25 44.05 107L49.55 71.25C49.8 70 95.05 41.25 95.05 41.25Z" fill="#009BE1"/>
<path id="Vector_4" d="M49.25 73L54.25 41.25C54.414 40.4981 54.8213 39.8212 55.4088 39.324C55.9963 38.8269 56.7313 38.5373 57.5 38.5H81.5C87.25 38.5 91.5 39.5 95 41.25C93.75 52.25 88.5 70 63 70.5H52C50.75 70.5 49.5 71.5 49.25 73Z" fill="#001F6B"/>
</g>
<defs>
<clipPath id="clip0_650_2164">
<rect width="128" height="128" fill="white"/>
</clipPath>
</defs>
</svg>
