<svg width="22" height="22" viewBox="0 0 22 22" fill="none" xmlns="http://www.w3.org/2000/svg">
<g id="Frame">
<path id="Vector" d="M13.8844 9.6875V5.75C13.8844 4.87976 13.5387 4.04516 12.9233 3.42981C12.3079 2.81445 11.4733 2.46875 10.6031 2.46875C9.73286 2.46875 8.89827 2.81445 8.28291 3.42981C7.66756 4.04516 7.32186 4.87976 7.32186 5.75V9.6875M17.2584 7.94362L18.3635 18.4436C18.4247 19.0255 17.9697 19.5312 17.3844 19.5312H3.82186C3.68379 19.5314 3.54723 19.5025 3.42106 19.4464C3.29489 19.3904 3.18192 19.3084 3.0895 19.2058C2.99708 19.1032 2.92727 18.9824 2.8846 18.8511C2.84194 18.7197 2.82737 18.5809 2.84186 18.4436L3.94786 7.94362C3.97337 7.70174 4.08753 7.47786 4.26833 7.31516C4.44912 7.15246 4.68375 7.06246 4.92698 7.0625H16.2792C16.7832 7.0625 17.2059 7.44312 17.2584 7.94362ZM7.64998 9.6875C7.64998 9.77452 7.61541 9.85798 7.55388 9.91952C7.49234 9.98106 7.40888 10.0156 7.32186 10.0156C7.23483 10.0156 7.15137 9.98106 7.08984 9.91952C7.0283 9.85798 6.99373 9.77452 6.99373 9.6875C6.99373 9.60048 7.0283 9.51702 7.08984 9.45548C7.15137 9.39394 7.23483 9.35938 7.32186 9.35938C7.40888 9.35938 7.49234 9.39394 7.55388 9.45548C7.61541 9.51702 7.64998 9.60048 7.64998 9.6875ZM14.2125 9.6875C14.2125 9.77452 14.1779 9.85798 14.1164 9.91952C14.0548 9.98106 13.9714 10.0156 13.8844 10.0156C13.7973 10.0156 13.7139 9.98106 13.6523 9.91952C13.5908 9.85798 13.5562 9.77452 13.5562 9.6875C13.5562 9.60048 13.5908 9.51702 13.6523 9.45548C13.7139 9.39394 13.7973 9.35938 13.8844 9.35938C13.9714 9.35938 14.0548 9.39394 14.1164 9.45548C14.1779 9.51702 14.2125 9.60048 14.2125 9.6875Z" stroke="white" stroke-width="1.5" stroke-linecap="round" stroke-linejoin="round"/>
</g>
</svg>
